<?xml version="1.0" encoding="utf-8"?>
<!-- Generator: Adobe Illustrator 21.0.2, SVG Export Plug-In . SVG Version: 6.00 Build 0)  -->
<svg version="1.1" id="Layer_1" xmlns="http://www.w3.org/2000/svg" xmlns:xlink="http://www.w3.org/1999/xlink" x="0px" y="0px"
	 viewBox="0 0 300 220" style="enable-background:new 0 0 300 220;" xml:space="preserve">
<style type="text/css">
	.st0{fill:#567EBF;fill-opacity:5.000000e-02;stroke:#567EBF;stroke-miterlimit:10;stroke-opacity:0.5;}
	.st1{opacity:0.2;fill:#567EBF;enable-background:new    ;}
	.st2{fill:#567EBF;}
	.st3{fill:none;stroke:#567EBF;stroke-width:2;stroke-linecap:round;stroke-miterlimit:10;stroke-dasharray:2,10;}
</style>
<g>
	<rect x="181.5" y="127.2" class="st0" width="118.5" height="82"/>
	<polygon class="st0" points="181.5,209.1 181.5,127.1 234.2,127.1 234.2,112.2 211.5,112.2 211.5,16.1 234.2,16.1 234.2,1.1
		93.9,1.1 93.9,218.8 234.2,218.8 234.2,209.1 	"/>
	<g>
		<g>
			<rect x="21" y="18.4" class="st1" width="72.8" height="6.5"/>
		</g>
		<g>
			<rect x="21" y="28.1" class="st1" width="40.9" height="6.5"/>
		</g>
		<g>
			<rect x="21" y="37.8" class="st1" width="46.2" height="6.5"/>
		</g>
		<g>
			<rect x="21" y="47.5" class="st1" width="58.1" height="6.5"/>
		</g>
		<g>
			<rect x="21" y="57.2" class="st1" width="72.8" height="6.5"/>
		</g>
		<g>
			<rect x="21" y="76.6" class="st1" width="13.8" height="6.5"/>
		</g>
		<g>
			<rect x="21" y="86.4" class="st1" width="24.3" height="6.5"/>
		</g>
		<g>
			<rect x="21" y="96.1" class="st1" width="24.3" height="6.5"/>
		</g>
		<g>
			<rect x="21" y="105.8" class="st1" width="18.9" height="6.5"/>
		</g>
		<g>
			<rect x="21" y="115.5" class="st1" width="47.4" height="6.5"/>
		</g>
		<g>
			<rect x="21" y="125.2" class="st1" width="39.8" height="6.5"/>
		</g>
		<g>
			<rect x="21" y="144.6" class="st1" width="52" height="6.5"/>
		</g>
		<g>
			<rect x="21" y="154.3" class="st1" width="56.5" height="6.5"/>
		</g>
	</g>
	<polyline class="st0" points="93.8,169.2 13,169.2 13,10 93.8,10 	"/>
	<g>
		<g>
			<rect x="103.5" y="199.4" class="st1" width="77.9" height="8.9"/>
		</g>
		<g>
			<rect x="103.5" y="186" class="st1" width="56.6" height="8.9"/>
		</g>
		<g>
			<rect x="103.5" y="172.6" class="st1" width="63.9" height="8.9"/>
		</g>
		<g>
			<rect x="103.5" y="159.2" class="st1" width="77.4" height="8.9"/>
		</g>
		<g>
			<rect x="103.5" y="145.8" class="st1" width="77.9" height="8.9"/>
		</g>
		<g>
			<rect x="103.5" y="118.9" class="st1" width="19" height="8.9"/>
		</g>
		<g>
			<rect x="103.5" y="105.5" class="st1" width="33.6" height="8.9"/>
		</g>
		<g>
			<rect x="103.5" y="92.1" class="st1" width="33.6" height="8.9"/>
		</g>
		<g>
			<rect x="103.5" y="78.7" class="st1" width="26.1" height="8.9"/>
		</g>
		<g>
			<rect x="103.5" y="65.3" class="st1" width="65.5" height="8.9"/>
		</g>
		<g>
			<rect x="103.5" y="51.9" class="st1" width="55" height="8.9"/>
		</g>
		<g>
			<rect x="103.5" y="25.1" class="st1" width="71.9" height="8.9"/>
		</g>
		<g>
			<rect x="103.5" y="11.7" class="st1" width="78.1" height="8.9"/>
		</g>
	</g>
	<g>
		<g>
			<g>
				<rect x="192.3" y="189.5" class="st1" width="101.2" height="8.9"/>
			</g>
			<g>
				<rect x="192.3" y="176.1" class="st1" width="56.6" height="8.9"/>
			</g>
			<g>
				<rect x="192.3" y="162.7" class="st1" width="63.9" height="8.9"/>
			</g>
			<g>
				<rect x="192.3" y="149.3" class="st1" width="80.2" height="8.9"/>
			</g>
			<g>
				<rect x="192.3" y="135.9" class="st1" width="106.3" height="8.9"/>
			</g>
		</g>
	</g>
	<g>
		<rect x="211.5" y="16.1" class="st0" width="80.9" height="96.1"/>
		<g>
			<polygon class="st1" points="292.4,74.8 292.4,112.2 211.5,112.2 211.5,85.6 236.8,76 258.8,89.8 			"/>
		</g>
		<g>
			<circle class="st1" cx="248.6" cy="48.8" r="16.9"/>
		</g>
	</g>
	<g>
		<path id="app-packaged_1_" class="st2" d="M187,109.8l-8.8-16.3v-1.3l-28.2-14l-28.2,14.1v1.3l-8.8,16.3l8.8,4.4v13.5l28.2,14.1
			l28.2-14.1v-13.2L187,109.8z M158.8,116.7l-4.7-8.8l19.4-9.7l4.7,8.8L158.8,116.7z M168.2,94.2l-18.2,9.1l-18.2-9.1l18.2-9.1
			L168.2,94.2z M126.2,98.2l19.4,9.7l-4.7,8.8l-19.1-9.7L126.2,98.2z M128.1,117.4l15.7,7.8l3.1-5.6V133l-18.8-9.4V117.4z
			 M172,123.6l-18.8,9.4v-13.8l3.1,5.6L172,117V123.6z"/>

			<rect x="95.7" y="55.6" transform="matrix(0.7071 -0.7071 0.7071 0.7071 -33.8243 138.2745)" class="st3" width="108.7" height="108.7"/>
	</g>
</g>
</svg>
